<svg height="496pt" viewBox="-80 0 496 496" width="496pt" xmlns="http://www.w3.org/2000/svg"><path d="m168 0c-66.167969 0-120 53.832031-120 120v64h8c0-17.671875 14.328125-32 32-32v-16h160v16c17.671875 0 32 14.328125 32 32h8v-64c0-66.167969-53.832031-120-120-120zm0 0" fill="#f0bc5e"/><path d="m208 488-16-96 8-40-32-24-32 24 7.871094 40.128906-15.871094 95.871094zm0 0" fill="#f0bc5e"/><path d="m297.710938 317.472656-81.710938-27.242187v-16.574219c17.679688-11.558594 30.910156-29.304688 36.710938-50.136719 19.816406-2.359375 35.289062-19.078125 35.289062-39.519531 0-19.3125-13.769531-35.472656-32-39.191406v-16.808594h-76.183594l-11.816406-29.535156-11.816406 29.535156h-76.183594v16.808594c-18.230469 3.71875-32 19.871094-32 39.191406 0 20.441406 15.472656 37.160156 35.289062 39.519531 5.789063 20.839844 19.03125 38.578125 36.710938 50.136719v16.574219l-81.710938 27.234375c-22.898437 7.640625-38.289062 28.992187-38.289062 53.136718v125.398438h336v-125.398438c0-24.144531-15.390625-45.496093-38.289062-53.128906zm-52.992188-.800781-23.285156 46.585937-40.890625-35.042968 29.066406-23.246094zm27.28125-132.671875c0 10.535156-6.871094 19.414062-16.335938 22.632812.167969-2.199218.335938-4.394531.335938-6.632812v-38.527344c9.289062 3.3125 16 12.113282 16 22.527344zm-32-40v19.039062l-50.175781-10.039062-3.609375-9zm-61.824219 23 26.703125 5.335938-21.71875 16.289062 4.878906 24.40625-20.039062-15.03125-20.046875 15.03125 4.878906-24.40625-21.71875-16.289062 26.703125-5.335938 10.183594-25.464844zm-28.390625-23-3.601562 9-50.183594 10.039062v-19.039062zm-85.785156 40c0-10.414062 6.710938-19.214844 16-22.527344v38.527344c0 2.238281.167969 4.433594.335938 6.632812-9.464844-3.21875-16.335938-12.097656-16.335938-22.632812zm32 16v-34l39.167969 29.375-11.121094 55.59375 43.953125-32.96875 43.953125 32.96875-11.121094-55.59375 39.167969-29.375v34c0 39.695312-32.296875 72-72 72s-72-32.304688-72-72zm72 88c11.296875 0 22.0625-2.214844 32-6.113281v10.265625l-32 25.601562-32-25.601562v-10.265625c9.9375 3.898437 20.703125 6.113281 32 6.113281zm-41.601562 16.96875 29.066406 23.246094-40.890625 35.042968-23.285157-46.585937zm193.601562 175.03125h-40v-88h-16v88h-192v-88h-16v88h-40v-109.398438c0-17.25 10.992188-32.496093 27.351562-37.953124l32.59375-10.863282 33.480469 66.957032 58.574219-50.207032 58.566406 50.207032 33.480469-66.957032 32.59375 10.863282c16.367187 5.457031 27.359375 20.703124 27.359375 37.953124zm0 0"/></svg>